<mxfile host="app.diagrams.net" modified="2024-07-05T01:28:04.997Z" agent="Mozilla/5.0 (Windows NT 10.0; Win64; x64) AppleWebKit/537.36 (KHTML, like Gecko) Chrome/126.0.0.0 Safari/537.36" version="24.4.13" etag="6U56TgyB9h1jJqmJEWRp" type="github">
  <diagram name="PÃ¡gina-1" id="fvbRL4U4Z0u3RoYAFKS_">
    <mxGraphModel>
      <root>
        <mxCell id="0" />
        <mxCell id="1" parent="0" />
      </root>
    </mxGraphModel>
  </diagram>
</mxfile>
